<?xml version="1.0" encoding="UTF-8"?>
<svg width="210mm" height="297mm" version="1.1" viewBox="0 0 210 297" xmlns="http://www.w3.org/2000/svg" xmlns:cc="http://creativecommons.org/ns#" xmlns:dc="http://purl.org/dc/elements/1.1/" xmlns:rdf="http://www.w3.org/1999/02/22-rdf-syntax-ns#">
<metadata>
<rdf:RDF>
<cc:Work rdf:about="">
<dc:format>image/svg+xml</dc:format>
<dc:type rdf:resource="http://purl.org/dc/dcmitype/StillImage"/>
</cc:Work>
</rdf:RDF>
</metadata>
<path d="m41.232 67.841s5.4644-13.56 1.2143-12.143c-4.2501 1.4167-14.167 12.346-10.929 17.608 3.2382 5.2621 14.977-2.8334 18.215-5.8692 3.2382-3.0358 4.6549-4.4525 3.8453 3.643-0.80955 8.0955-8.7026 2.631-6.0716 4.0477 2.631 1.4167-1.4167-1.2143 0.80955-7.0835 2.2263-5.8692-4.0521 8.0485 0.40477 8.0955 4.2629 0.04489 4.2121-5.2941 7.4883-0.60716 3.602 5.1529 6.6788-13.155 6.8811-11.131 0.20239 2.0239 0.20239 6.274 4.0477 4.2501 3.8453-2.0239-7.4883 9.5122-1.0119 6.8811 6.4764-2.631 7.2859-8.5002 5.6668-9.3098-1.6191-0.80955 2.631 9.9169-0.80955 9.7146-3.4406-0.20238 6.4764-9.5122 7.4883-9.3098 1.0119 0.20239 0.60716 6.4764-0.40478 7.6907-1.0119 1.2143 8.0955-9.1074 8.0955-7.4883 0 1.6191-2.0239 8.905-0.60716 8.905 1.4167 0 17-11.738 12.548-11.536-4.4525 0.20239-8.905 12.346-6.0716 11.536 2.8334-0.80955 12.143-6.274 11.334-7.4883-0.80955-1.2143-1.2143 7.4883-2.4286 7.4883s9.5122-11.738 8.7026-9.7146c-0.80955 2.0239-1.6191 11.941 2.2262 8.905 3.8454-3.0358 29.953 10.726 25.096 3.643-4.8573-7.0835-6.274-21.655-2.0239-22.263 4.2501-0.60716-1.2143 18.417-3.4406 18.215-2.2262-0.20239-12.346 0.20239-14.167-7.6907-1.8215-7.8931 2.0239 8.5002 11.738 4.6549 9.7146-3.8453 11.131-5.6668 12.143-6.274 1.0119-0.60716 7.4883-2.631 5.2621 3.8453-2.2263 6.4764-4.6549 7.8931-5.8692 6.4764-1.2143-1.4167 3.643-12.143 4.8573-11.131 1.2143 1.0119 0.40477 13.965 3.643 11.738 3.2382-2.2263 4.4525-8.0955 4.4525-8.7026 0-0.60716-9.722 20.178 5.262-0.80955 7.2205-10.114-5.8727 7.5384 2.4286 8.0955 4.6588 0.31264-1.0992 0.42967 3.0358-7.6907 3.7395-7.3436 4.4525-4.4525 4.4525-4.4525s1.2143 8.0955-0.60716 7.8931c-1.8215-0.20239 3.2382-8.2979 0.80955-8.2979-2.4286 0-8.905 14.369-4.2501 13.358 4.6549-1.0119 13.155-3.2382 12.346-9.3098-0.80955-6.0716-1.8887 9.1189-1.8215 9.3098 0.93198 2.6468 11.54-8.7598 9.1074-9.3098-2.0239 0.40477-3.8454 10.119-1.4167 9.3098 2.4286-0.80955 7.6907-3.643 6.8812-4.0477 145.5 9.9686-352.81 20.775-178.1 45.739 8.3333 1.1907 13.227-24.226 7.8931-18.012-7.3893 8.608-6.8813 20.037-7.6907 20.441-0.80955 0.40478-9.1022 17.481-7.4883 18.417 3.3749 1.9582 12.262-12.227 7.8931-19.429-3.5689-5.8833-3.2382-7.6907-4.4525-6.274-1.2143 1.4167-0.20239 6.274 1.8215 6.0716 2.0239-0.20239 6.274 5.6668 8.5002 2.0239s7.0835-9.7146 6.0716-10.322c-1.0119-0.60716 0.80955 4.8573 3.2382 3.0358s-4.6549 7.6907-1.0119 7.2859c3.643-0.40477 11.334-13.56 11.334-10.322s-2.0239 12.548-5.0597 10.524c-3.0358-2.0239 1.2143-7.0835 1.2143-7.8931 0-0.80955 6.8811 4.6549 9.1074-0.40478 2.2263-5.0597-2.4286 8.2979-2.4286 8.2979s8.905-11.536 8.905-9.5122c0 2.0239-1.4167 11.131 1.8215 9.1074 3.2382-2.0239 8.905-21.858 8.0955-22.263-0.80955-0.40478-8.0955 26.108-3.643 22.87 20.184-6.354-10.607-15.86-3.643-16.798 32.574-1.9855 1.367 9.7753 14.774 8.905 0 0 0.60716 4.6549 0.60716 4.4525 0-0.20238 12.346-8.7026 6.274-8.5002-6.0716 0.20239-5.4301 7.0882-5.6668 8.7026-0.7451 5.0815 14.562-1.9877 12.75-4.6549-1.8215-2.631-2.2263 6.0716-2.4286 7.0835-0.20239 1.0119 8.0955-10.322 8.0955-8.905 0 1.4167-1.2143 11.536 2.0239 8.905s5.2621-14.167 7.0835-11.536c1.8215 2.631-2.8334 15.179-4.2501 12.143-1.4167-3.0358 3.0358-12.75 4.0477-12.346 1.0119 0.40477 0.20238 10.119 3.2382 1.2143s3.2382-9.5122 3.2382-9.5122-7.0835 19.834-3.643 19.429c3.4406-0.40477 5.2621-2.631 5.4644-3.643 0.20239-1.0119 11.941-2.2263 12.953-3.2382s-1.6191-6.0716-2.631-4.6549c-1.0119 1.4167-8.0955 16.798-3.643 12.953 4.4525-3.8454 12.346-21.453 10.322-21.453-2.0239 0-4.6549 18.62-3.0358 19.227 1.6191 0.60716 14.977-8.2978 10.929-9.917-4.0477-1.6191-9.1074 9.5122-6.274 10.524 2.8334 1.0119 16.393-7.4883 14.167-8.905-2.2262-1.4167-3.2382 10.726-2.2262 10.524 1.0119-0.20239 8.905-10.726 6.274-10.929-2.631-0.20238 4.2545 8.9699 4.8573 3.8454 0.59586-5.0653 5.4622-6.6799 4.8573-5.262 2.2329 0.44129-1.016 7.6926-4.6549 8.2978-0.80954-3.8454-0.80954-2.2262-1.4167 0.80955-0.60716 3.0358 11.131-0.80955 11.334-1.6191 1.6461 0.63414 13.193-13.927 8.5002-14.977-3.4406 0.20238-9.7146 20.036-7.2859 19.834 2.4286-0.20239 12.75-10.726 13.762-10.322 1.0119 0.40478-1.2143 14.167-4.8573 10.119-3.643-4.0477 2.631-8.2979 2.631-8.2979s7.8931 6.0716 9.7146 0.40478-7.4883 21.251-7.0835 19.227c0.40478-2.0239 8.7026-24.691 11.131-21.048s0.40478 11.334-1.2143 9.917c-1.6191-1.4167-4.6549-5.6668-3.8453-5.4644 0.80954 0.20239 4.4721 2.5058 10.929 1.6191 6.2574-0.85937 8.0911-5.6801 6.274-8.0955-1.2143-0.60716-10.322 12.953-5.262 11.536 5.0597-1.4167 16.393-9.1074 14.977-10.929s-6.274 11.131-6.274 11.131 6.4764-14.774 5.8692-11.738c-0.60717 3.0358 3.4406 6.8812 4.4525 4.8573 1.0119-2.0239-5.8692 7.8931-2.631 7.2859 3.2382-0.60716 6.0716-4.2501 6.6788-6.0716" fill="none" stroke="#333" stroke-width="2.065"/>
</svg>
