<?xml version="1.0" encoding="UTF-8" standalone="no"?>
<!-- Created with Inkscape (http://www.inkscape.org/) -->

<svg
   xmlns:dc="http://purl.org/dc/elements/1.1/"
   xmlns:cc="http://creativecommons.org/ns#"
   xmlns:rdf="http://www.w3.org/1999/02/22-rdf-syntax-ns#"
   xmlns:svg="http://www.w3.org/2000/svg"
   xmlns="http://www.w3.org/2000/svg"
   xmlns:sodipodi="http://sodipodi.sourceforge.net/DTD/sodipodi-0.dtd"
   xmlns:inkscape="http://www.inkscape.org/namespaces/inkscape"
   width="210mm"
   height="297mm"
   viewBox="0 0 210 297"
   version="1.1"
   id="svg4327"
   sodipodi:docname="try2.svg"
   inkscape:version="0.92+devel (b071ae7561, 2017-11-25, custom)">
  <defs
     id="defs4321" />
  <sodipodi:namedview
     id="base"
     pagecolor="#ffffff"
     bordercolor="#666666"
     borderopacity="1.0"
     inkscape:pageopacity="0.0"
     inkscape:pageshadow="2"
     inkscape:zoom="0.92441176"
     inkscape:cx="360.50801"
     inkscape:cy="739.33739"
     inkscape:document-units="mm"
     inkscape:current-layer="layer1"
     inkscape:document-rotation="0"
     showgrid="false"
     inkscape:window-width="1366"
     inkscape:window-height="705"
     inkscape:window-x="-8"
     inkscape:window-y="-8"
     inkscape:window-maximized="1"
     showguides="false" />
  <metadata
     id="metadata4324">
    <rdf:RDF>
      <cc:Work
         rdf:about="">
        <dc:format>image/svg+xml</dc:format>
        <dc:type
           rdf:resource="http://purl.org/dc/dcmitype/StillImage" />
      </cc:Work>
    </rdf:RDF>
  </metadata>
  <g
     inkscape:label="Layer 1"
     inkscape:groupmode="layer"
     id="layer1">
    <path
       style="fill:none;stroke:#333333;stroke-width:2.06500006;stroke-linecap:butt;stroke-linejoin:miter;stroke-miterlimit:4;stroke-dasharray:none;stroke-opacity:1"
       d="m 41.231826,67.840695 c 0,0 5.464442,-13.559912 1.214321,-12.143205 -4.250121,1.416708 -14.16707,12.34559 -10.928882,17.607645 3.238188,5.262057 14.976618,-2.833413 18.214804,-5.869215 3.238186,-3.0358 4.654894,-4.452507 3.845346,3.642963 -0.809546,8.095466 -8.702626,2.631027 -6.071599,4.047733 2.631026,1.416706 -1.416709,-1.214321 0.809546,-7.083536 2.226253,-5.869215 -4.052085,8.048538 0.404772,8.095469 4.262947,0.04489 4.212066,-5.294055 7.488308,-0.60716 3.601992,5.152905 6.678764,-13.155136 6.881149,-11.131269 0.202387,2.023866 0.202387,6.273987 4.047736,4.250121 3.845349,-2.023867 -7.488309,9.512175 -1.011934,6.881148 6.476377,-2.631027 7.285922,-8.500242 5.666829,-9.309788 -1.619094,-0.809548 2.631027,9.916948 -0.809546,9.714561 -3.440577,-0.202385 6.476375,-9.512176 7.488309,-9.309788 1.011933,0.202388 0.607158,6.476375 -0.404776,7.690694 -1.011933,1.214321 8.09547,-9.1074 8.09547,-7.488306 0,1.619091 -2.023867,8.905015 -0.607161,8.905015 1.416709,0 17.000482,-11.73843 12.547978,-11.536045 -4.452508,0.202388 -8.905015,12.34559 -6.071602,11.536045 2.833415,-0.809549 12.143196,-6.273988 11.333656,-7.488309 -0.80955,-1.214321 -1.21432,7.488309 -2.42864,7.488309 -1.21432,0 9.51217,-11.73843 8.70263,-9.714564 -0.80955,2.023867 -1.6191,11.940818 2.22625,8.905015 3.84535,-3.0358 29.95324,10.726497 25.09595,3.642964 -4.85728,-7.083536 -6.27398,-21.655381 -2.02386,-22.262542 4.25012,-0.60716 -1.21432,18.417193 -3.44058,18.214806 -2.22625,-0.202388 -12.34559,0.202387 -14.16707,-7.690694 -1.82148,-7.893085 2.02387,8.500242 11.73843,4.654894 9.71457,-3.845349 11.13127,-5.66683 12.1432,-6.273988 1.01194,-0.607161 7.48831,-2.63103 5.26206,3.845345 -2.22626,6.476376 -4.65489,7.893085 -5.86922,6.476376 -1.21432,-1.416706 3.64296,-12.143203 4.85729,-11.131269 1.21432,1.011933 0.40477,13.964684 3.64296,11.738429 3.23818,-2.226254 4.45251,-8.095469 4.45251,-8.702629 0,-0.607157 -9.72195,20.178451 5.26205,-0.809546 7.22046,-10.113649 -5.87273,7.538378 2.42865,8.095469 4.6588,0.312644 -1.09923,0.429671 3.0358,-7.690696 3.73949,-7.343605 4.45251,-4.452509 4.45251,-4.452509 0,0 1.21432,8.095469 -0.60716,7.893084 -1.82148,-0.202388 3.23819,-8.297857 0.80955,-8.297857 -2.42865,0 -8.90502,14.369457 -4.25013,13.357524 4.6549,-1.011933 13.15514,-3.238188 12.3456,-9.309788 -0.80955,-6.071603 -1.88871,9.118886 -1.82149,9.309788 0.93198,2.646845 11.54046,-8.759782 9.10741,-9.309788 -2.02387,0.404773 -3.84535,10.119336 -1.41671,9.309788 2.42864,-0.809546 7.69069,-3.642961 6.88115,-4.047733 145.49795,9.968572 -352.81356,20.774733 -178.100325,45.739404 8.333279,1.19074 13.226697,-24.225691 7.893083,-18.012423 -7.389306,8.608003 -6.881306,20.036753 -7.690696,20.441053 -0.809547,0.40478 -9.1022295,17.48078 -7.4883095,18.4172 3.374864,1.95815 12.2621635,-12.22664 7.8930835,-19.42913 -3.5688605,-5.88332 -3.2381885,-7.69069 -4.4525085,-6.27399 -1.214321,1.41671 -0.202387,6.27399 1.82148,6.07161 2.0238675,-0.20239 6.2739895,5.66682 8.5002435,2.02386 2.226254,-3.64296 7.083535,-9.71456 6.071601,-10.32172 -1.011933,-0.60716 0.809547,4.85728 3.238188,3.0358 2.428641,-1.82148 -4.654895,7.6907 -1.011934,7.28592 3.64296,-0.40477 11.333657,-13.55991 11.333657,-10.32172 0,3.23819 -2.023867,12.54798 -5.05967,10.52411 -3.0358,-2.02387 1.214322,-7.08354 1.214322,-7.89308 0,-0.80955 6.881148,4.65489 9.107402,-0.40478 2.226255,-5.05966 -2.428639,8.29786 -2.428639,8.29786 0,0 8.905014,-11.53604 8.905014,-9.51218 0,2.02387 -1.416705,11.13127 1.821481,9.10741 3.238185,-2.02387 8.905015,-21.857773 8.095467,-22.262543 -0.809546,-0.40478 -8.095467,26.107883 -3.64296,22.869703 20.184472,-6.35401 -10.606786,-15.86027 -3.642961,-16.7981 32.573839,-1.98547 1.366985,9.7753 14.77423,8.90501 0,0 0.60716,4.6549 0.60716,4.45251 0,-0.20238 12.345592,-8.70263 6.273989,-8.50024 -6.071601,0.20239 -5.430103,7.08819 -5.666828,8.70263 -0.745096,5.08147 14.561936,-1.98766 12.750364,-4.6549 -1.821481,-2.63102 -2.226254,6.07161 -2.428639,7.08354 -0.202388,1.01193 8.095467,-10.32172 8.095467,-8.90502 0,1.41671 -1.214319,11.53605 2.023869,8.90502 3.238188,-2.63103 5.262054,-14.16707 7.083533,-11.53604 1.821482,2.63102 -2.833412,15.179 -4.250121,12.1432 -1.416706,-3.0358 3.035803,-12.75037 4.047736,-12.34559 1.011933,0.40477 0.202385,10.11934 3.238188,1.21432 3.035803,-8.90502 3.238183,-9.51218 3.238183,-9.51218 0,0 -7.083531,19.8339 -3.642959,19.42913 3.440579,-0.40477 5.262059,-2.63103 5.464439,-3.64296 0.20239,-1.01193 11.94082,-2.22626 12.95275,-3.23819 1.01193,-1.01193 -1.61909,-6.0716 -2.63103,-4.6549 -1.01193,1.41671 -8.09546,16.7981 -3.64296,12.95276 4.45251,-3.84535 12.34559,-21.453003 10.32172,-21.453003 -2.02386,0 -4.65489,18.619583 -3.0358,19.226743 1.6191,0.60716 14.97662,-8.29785 10.92889,-9.91695 -4.04774,-1.61909 -9.1074,9.51218 -6.27399,10.52411 2.83341,1.01194 16.39333,-7.48831 14.16707,-8.90501 -2.22625,-1.41671 -3.23819,10.72649 -2.22625,10.52411 1.01193,-0.20239 8.90501,-10.7265 6.27398,-10.92889 -2.63102,-0.20238 4.25446,8.96989 4.85729,3.84535 0.59586,-5.06531 5.46216,-6.6799 4.85728,-5.26205 2.23289,0.44129 -1.016,7.69265 -4.6549,8.29785 -0.80954,-3.84535 -0.80954,-2.22625 -1.41671,0.80955 -0.60716,3.0358 11.13127,-0.80955 11.33366,-1.6191 1.64607,0.63414 13.19279,-13.92704 8.50025,-14.97661 -3.44057,0.20238 -9.71457,20.03628 -7.28593,19.8339 2.42864,-0.20239 12.75038,-10.7265 13.76231,-10.32173 1.01193,0.40478 -1.21432,14.16707 -4.85728,10.11934 -3.64296,-4.04774 2.63103,-8.29786 2.63103,-8.29786 0,0 7.89308,6.07161 9.71456,0.40478 1.82148,-5.66683 -7.48831,21.2506 -7.08354,19.22674 0.40478,-2.02387 8.70263,-24.69118 11.13127,-21.04822 2.42864,3.64296 0.40478,11.33365 -1.21432,9.91695 -1.61909,-1.41671 -4.65489,-5.66683 -3.84534,-5.46445 0.80954,0.20239 4.47213,2.50585 10.92888,1.6191 6.25738,-0.85937 8.09106,-5.68007 6.27398,-8.09547 -1.21431,-0.60716 -10.32172,12.95275 -5.26205,11.53604 5.05967,-1.4167 16.39333,-9.1074 14.97662,-10.92888 -1.41671,-1.82148 -6.27399,11.13127 -6.27399,11.13127 0,0 6.47638,-14.77423 5.86922,-11.73843 -0.60717,3.0358 3.44057,6.88115 4.4525,4.85728 1.01194,-2.02387 -5.86921,7.89308 -2.63102,7.28592 3.23818,-0.60716 6.0716,-4.25012 6.67876,-6.0716"
       id="path4882"
       inkscape:connector-curvature="0"
       sodipodi:nodetypes="csssssssscssssscsssccscscsssscccccssssccsscscscsscssccssscsssscscccccsssccsscscscscscssccccccscccccccccscsccsccscccsc" />
  </g>
</svg>
